<?xml version="1.0" encoding="UTF-8" standalone="no"?>
<!-- Created with Inkscape (http://www.inkscape.org/) -->

<svg
   xmlns:dc="http://purl.org/dc/elements/1.1/"
   xmlns:cc="http://creativecommons.org/ns#"
   xmlns:rdf="http://www.w3.org/1999/02/22-rdf-syntax-ns#"
   xmlns:svg="http://www.w3.org/2000/svg"
   xmlns="http://www.w3.org/2000/svg"
   xmlns:sodipodi="http://sodipodi.sourceforge.net/DTD/sodipodi-0.dtd"
   xmlns:inkscape="http://www.inkscape.org/namespaces/inkscape"
   version="1.1"
   id="svg2"
   width="565.59998"
   height="221.60001"
   viewBox="0 0 565.59998 221.60001"
   sodipodi:docname="Logo.svg"
   inkscape:version="0.92.3 (2405546, 2018-03-11)">
  <metadata
     id="metadata8">
    <rdf:RDF>
      <cc:Work
         rdf:about="">
        <dc:format>image/svg+xml</dc:format>
        <dc:type
           rdf:resource="http://purl.org/dc/dcmitype/StillImage" />
        <dc:title />
      </cc:Work>
    </rdf:RDF>
  </metadata>
  <defs
     id="defs6" />
  <sodipodi:namedview
     pagecolor="#ffffff"
     bordercolor="#666666"
     borderopacity="1"
     objecttolerance="10"
     gridtolerance="10"
     guidetolerance="10"
     inkscape:pageopacity="0"
     inkscape:pageshadow="2"
     inkscape:window-width="1920"
     inkscape:window-height="1001"
     id="namedview4"
     showgrid="false"
     fit-margin-top="0"
     fit-margin-left="0"
     fit-margin-right="0"
     fit-margin-bottom="0"
     inkscape:zoom="1.3713592"
     inkscape:cx="112.15431"
     inkscape:cy="53.837718"
     inkscape:window-x="-9"
     inkscape:window-y="-9"
     inkscape:window-maximized="1"
     inkscape:current-layer="g5268" />
  <g
     id="g5268"
     style="opacity:1">
    <path
       inkscape:connector-curvature="0"
       id="path831"
       d="m 353.45488,204.40041 v -3.89693 l 4.1251,-0.54722 c 5.17742,-0.6868 8.07311,-2.16678 10.26656,-5.24719 l 1.71779,-2.41242 -9.25472,-24.37486 c -5.09011,-13.40618 -9.25473,-24.76116 -9.25473,-25.2333 0,-0.55751 2.17346,-0.77653 6.2,-0.62479 l 6.2,0.23365 5.3195,15.6 c 2.92573,8.58 5.55993,16.32 5.85378,17.2 0.3741,1.12035 2.27615,-3.5562 6.34483,-15.6 l 5.81058,-17.2 6.13565,-0.23365 c 5.03611,-0.19178 6.13566,-0.0176 6.13566,0.97171 0,1.31481 -19.45075,53.09698 -21.19258,56.41932 -1.24693,2.37836 -5.63536,6.65475 -8.15483,7.94663 -0.96107,0.49279 -5.01107,0.89599 -9,0.89599 h -7.25259 z m -42.0331,-12.00679 c -8.06266,-3.66236 -10.8106,-13.5707 -5.96627,-21.51281 3.46096,-5.67413 14.02774,-9.78346 25.1573,-9.78346 5.03139,0 5.24207,-0.0789 5.24207,-1.96236 0,-5.48036 -3.44424,-8.04405 -10.78067,-8.0245 -5.8684,0.0156 -8.67734,1.54109 -10.39131,5.6432 -1.17811,2.8196 -1.18905,2.82448 -5.80418,2.58429 -4.22186,-0.21971 -4.64794,-0.41145 -4.90108,-2.20547 -0.83259,-5.90065 4.58882,-12.59662 11.97477,-14.79001 12.49478,-3.71055 27.07053,1.15111 29.48215,9.83362 0.44627,1.60667 0.81341,11.47123 0.81586,21.92123 l 0.004,19 h -5.2 -5.2 v -2.93945 -2.93945 l -1.8,1.68979 c -5.15277,4.8373 -15.98464,6.50535 -22.6331,3.48538 z m 16.2588,-9.33681 c 1.63586,-0.6823 4.1443,-2.37292 5.5743,-3.75694 2.2441,-2.17193 2.6,-3.05833 2.6,-6.47548 v -3.9591 l -5.69627,0.47756 c -6.71836,0.56324 -12.5526,3.15559 -14.30117,6.3545 -1.07224,1.96159 -1.0699,2.43716 0.0216,4.38843 2.2832,4.0816 6.55837,5.15787 11.80151,2.97103 z m 136.50688,9.71057 c -8.19936,-2.56699 -12.43723,-7.3486 -12.62023,-14.23951 l -0.11235,-4.23052 h 4.7195 4.71949 l 1.10128,3.2 c 0.60571,1.76 1.90194,3.8167 2.88051,4.57045 3.72188,2.86678 12.42174,2.51113 15.01523,-0.61383 1.38177,-1.66494 1.18831,-4.96177 -0.39375,-6.70992 -0.74675,-0.82515 -3.76175,-2.11308 -6.7,-2.86206 -11.5974,-2.95627 -15.21612,-4.42975 -17.62947,-7.1784 -6.73865,-7.67491 -2.68987,-19.4821 7.7181,-22.50778 6.61469,-1.92294 15.65177,-1.22251 20.44129,1.58434 4.58797,2.68873 7.72782,7.72182 7.72782,12.38749 v 3.32971 h -4.78476 c -4.55969,0 -4.80934,-0.10348 -5.30745,-2.2 -0.74165,-3.12161 -2.51219,-4.87717 -5.96086,-5.91042 -7.79035,-2.33404 -15.82403,3.93316 -9.96381,7.77293 1.09071,0.71466 5.50071,2.18769 9.8,3.27339 8.21858,2.07546 14.03626,4.8844 15.40217,7.43661 0.44809,0.83727 0.81471,4.6404 0.81471,8.4514 0,8.33427 -1.12558,10.39925 -7.36254,13.50725 -3.41076,1.69966 -5.22996,2.05929 -10.19453,2.01532 -3.32361,-0.0294 -7.51327,-0.51383 -9.31035,-1.07645 z M 245.45488,159.54969 v -33.65234 h 17.6257 c 14.09907,0 18.21862,0.24774 20.58908,1.23818 6.555,2.73886 9.78522,8.01064 9.78522,15.96968 0,5.92471 -1.15655,8.80362 -4.75214,11.82911 l -2.40962,2.02755 2.66944,1.57501 c 6.17716,3.64461 9.20713,11.3729 7.65913,19.53548 -1.05483,5.56212 -3.94195,9.51294 -9.00003,12.31593 l -4.16678,2.30906 -19,0.25234 -19,0.25234 z m 35.74456,20.27519 c 1.24049,-0.91986 2.75826,-3.09415 3.37281,-4.83176 0.9948,-2.81275 0.96531,-3.47974 -0.26892,-6.08068 -2.42273,-5.10552 -4.24055,-5.77019 -16.64845,-6.08735 l -11,-0.28117 v 9.73718 9.73718 l 11.14456,-0.26046 c 9.81077,-0.2293 11.41448,-0.46063 13.4,-1.93294 z m -3.20216,-28.94099 c 3.51911,-2.51014 4.70632,-6.36398 3.12579,-10.14673 -1.75197,-4.19306 -4.87684,-5.23981 -15.64249,-5.23981 h -8.8257 v 8.88426 8.88426 l 9.4,-0.28426 c 8.22137,-0.24862 9.71878,-0.51164 11.9424,-2.09772 z m 127.4576,8.64851 v -33.63505 h 6.00878 6.00877 l -0.20877,33.4 -0.20878,33.4 -5.8,0.23505 -5.8,0.23505 z m 25.16287,32.55668 c -0.21279,-0.55454 -0.29149,-11.98454 -0.17489,-25.4 l 0.21202,-24.39173 5.8,-0.23505 5.8,-0.23505 v 25.63505 25.63505 h -5.6251 c -3.7867,0 -5.75156,-0.32952 -6.01203,-1.00827 z m -0.36287,-60.99173 v -5.2 h 6 6 v 5.2 5.2 h -6 -6 z"
       style="fill:#ffffff;stroke-width:0.80000001" />
    <path
       inkscape:connector-curvature="0"
       id="path833"
       d="m 520.79999,107.70306 v -3.89693 l 4.12511,-0.54722 c 5.17741,-0.68681 8.0731,-2.16678 10.26655,-5.247192 l 1.71779,-2.412423 -9.25472,-24.37486 c -5.0901,-13.406173 -9.25473,-24.761158 -9.25473,-25.233299 0,-0.557506 2.17346,-0.77653 6.2,-0.624787 l 6.2,0.233651 5.3195,15.6 c 2.92573,8.58 5.55993,16.319999 5.85378,17.199999 0.3741,1.120335 2.27609,-3.556403 6.34439,-15.599999 l 5.81013,-17.2 5.3361,-0.236552 5.3361,-0.236552 V 48.4564 c 0,2.305692 -2.8494,10.855567 -9.26643,27.804751 -10.5324,27.818999 -10.46021,27.659669 -14.06531,31.042849 -4.06439,3.8142 -5.56898,4.296 -13.41567,4.296 h -7.25259 z M 344.3669,95.696267 C 336.30423,92.033906 333.55629,82.125565 338.40063,74.183458 341.86159,68.50933 352.42837,64.4 363.55792,64.4 c 5.0314,0 5.24208,-0.07887 5.24208,-1.962358 0,-5.480365 -3.44424,-8.044056 -10.78068,-8.024503 -5.8684,0.01564 -8.67733,1.541089 -10.39131,5.643204 -1.1781,2.819599 -1.18905,2.824472 -5.80417,2.584291 -4.22186,-0.219714 -4.64795,-0.411451 -4.90108,-2.205476 -0.83259,-5.900649 4.58881,-12.596616 11.97476,-14.790009 12.49479,-3.710552 27.07053,1.151111 29.48216,9.833617 0.44627,1.606679 0.8134,11.471234 0.81585,21.921233 l 0.004,19 h -5.2 -5.2 v -2.939452 -2.939451 l -1.8,1.689797 c -5.15277,4.837299 -15.98464,6.505348 -22.6331,3.485374 z m 16.25879,-9.336813 c 1.63587,-0.6823 4.14431,-2.37292 5.57431,-3.756933 2.2441,-2.171934 2.6,-3.058327 2.6,-6.475485 V 72.16794 l -5.69628,0.477555 c -6.71836,0.563243 -12.5526,3.155597 -14.30116,6.354504 -1.07224,1.961587 -1.0699,2.43716 0.0216,4.38843 2.2832,4.081603 6.55836,5.157875 11.80151,2.971025 z M 400.8,96.154111 c -4.59231,-1.447474 -10.61868,-8.142103 -12.36964,-13.741293 -1.98478,-6.346899 -2.00164,-16.83415 -0.0371,-23.079903 2.00532,-6.375447 7.09406,-11.96832 12.53327,-13.774935 5.848,-1.942395 14.44146,-1.295146 19.36888,1.45884 l 3.7046,2.070546 v -9.543682 -9.543683 h 6 6 V 63.2 96.399999 h -5.6 -5.6 v -2.375891 -2.37589 l -2.8948,1.964461 c -1.59213,1.080455 -4.20213,2.327597 -5.8,2.771429 -3.71,1.030517 -11.68633,0.910654 -15.30519,-0.229997 z m 15.52023,-9.669228 c 6.14229,-2.566411 9.65494,-11.645814 7.84784,-20.284883 -2.0931,-10.006366 -9.58064,-14.481053 -17.99966,-10.75692 -5.39968,2.388538 -7.34625,6.450765 -7.35881,15.356919 -0.008,5.791806 0.28692,7.322015 1.9904,10.320847 3.18056,5.599151 9.62601,7.826798 15.52023,5.364037 z m 68.97194,9.403747 c -2.72967,-0.838167 -5.15249,-2.449381 -8.0363,-5.344278 -5.10854,-5.128182 -7.19044,-10.857818 -7.17423,-19.744353 0.0208,-11.381589 3.97061,-19.381091 11.67785,-23.650809 3.85655,-2.136485 4.92864,-2.34919 11.8405,-2.34919 6.81656,0 7.97882,0.2227 11.27482,2.160359 6.83675,4.019211 10.36206,11.064717 10.5979,21.180447 l 0.12728,5.459193 -17.35707,0.215483 -17.35708,0.215482 1.11147,3.693143 c 1.99131,6.616585 7.69079,10.590231 13.7739,9.603078 4.07667,-0.661553 6.17797,-2.342989 8.13737,-6.511415 l 1.73815,-3.697765 4.17663,0.240997 c 4.03978,0.2331 4.18465,0.323535 4.42126,2.759864 0.52688,5.424947 -4.21228,12.207571 -10.61193,15.187636 -4.77719,2.224547 -12.22206,2.460847 -18.34052,0.582128 z m 19.50782,-31.514325 c 0,-0.454132 -0.49637,-2.013688 -1.10305,-3.46568 -2.2002,-5.265827 -8.25414,-7.95369 -14.02203,-6.225589 -3.52139,1.055035 -5.93609,3.431977 -7.64747,7.527881 L 480.77852,65.2 h 12.01074 c 7.723,0 12.01073,-0.294767 12.01073,-0.825695 z M 245.6,63.253194 V 30.000001 h 18.43973 c 19.65621,0 20.90732,0.210881 24.46669,4.123989 C 291.6317,37.559873 292.8,40.900213 292.8,46.4 c 0,5.933047 -1.15511,8.810259 -4.75215,11.836969 l -2.40961,2.027554 2.66944,1.575004 c 6.17716,3.644617 9.20713,11.372898 7.65913,19.535484 -1.05484,5.562122 -3.94195,9.512939 -9.00003,12.315925 l -4.16678,2.309063 -18.6,0.253194 -18.6,0.253194 z m 34.94455,19.874333 c 1.2405,-0.919859 2.75826,-3.094151 3.37282,-4.831759 0.9948,-2.812745 0.9653,-3.479734 -0.26892,-6.08068 C 281.22572,67.109569 279.4079,66.444902 267,66.12774 l -11,-0.281174 v 9.737184 9.737183 l 11.14455,-0.260467 c 9.81078,-0.229294 11.41449,-0.460629 13.4,-1.932939 z M 277.3424,54.186538 c 3.51911,-2.510136 4.70632,-6.363978 3.12579,-10.146726 -1.75197,-4.193064 -4.87685,-5.239811 -15.6425,-5.239811 H 256 v 8.884261 8.884262 l 9.4,-0.284262 c 8.22136,-0.24862 9.71878,-0.511646 11.9424,-2.097724 z M 305.6,70.799999 V 45.2 h 5.6 c 5.57279,0 5.60006,0.01069 5.61225,2.2 0.007,1.223202 0.27321,1.8007 0.6,1.300675 1.4856,-2.273135 6.32598,-4.294795 10.2898,-4.297684 5.16136,-0.0038 6.05767,1.015871 5.742,6.532068 L 333.2,55.2 h -4.91519 c -3.79033,0 -5.31952,0.365737 -6.68191,1.598111 -3.98036,3.600508 -4.33666,5.359163 -4.66018,23.001888 l -0.3044,16.6 H 311.11916 305.6 Z M 448.79999,63.235048 V 30.000001 h 6.00888 6.00888 L 460.60887,63 l -0.20888,32.999999 -5.8,0.235048 -5.8,0.235047 z"
       style="fill:#ffffff;stroke-width:0.79999995" />
    <path
       style="opacity:1;fill:#ffffff;fill-opacity:1;stroke:#ffffff;stroke-width:2.24453282;stroke-miterlimit:4;stroke-dasharray:none;paint-order:markers fill stroke"
       d="m 1.7947,0.5309643 h 220.8 V 222.131 h -220.8 z"
       id="rect859"
       inkscape:connector-curvature="0" />
    <path
       inkscape:connector-curvature="0"
       id="path817"
       d="M 1.7947,111.33099 V 0.5309643 h 110.4 110.39999 v 110.8000257 110.8 H 112.1947 1.7947 Z m 216.79999,0.4 V 4.5309643 H 112.1947 5.7947 v 107.2000257 107.2 h 106.4 106.39999 z M 13.36497,207.53418 c -0.21008,-0.55176 -0.28934,-44.38319 -0.17612,-97.4032 L 13.3947,13.730964 h 97.6 97.59999 v 97.200016 97.20001 l -97.42388,0.20319 c -77.51748,0.16167 -97.50192,-0.002 -97.80584,-0.8 z m 191.62972,-95.0808 V 20.375744 L 112.5947,112.18461 c -50.82,50.49487 -92.4,91.9298 -92.4,92.07761 0,0.14783 41.58,0.26877 92.4,0.26877 h 92.39999 z m -76.79999,34.07317 v -33.33538 l 16.6,0.29365 c 13.71005,0.24253 17.15709,0.54063 19.79999,1.71234 7.00298,3.10473 10.4827,9.10219 9.83221,16.94631 -0.40884,4.93006 -2.12353,7.86524 -6.06825,10.38752 -3.03613,1.94131 -3.14455,2.48082 -0.62562,3.11304 5.57853,1.40012 10.01518,8.37732 10.04409,15.79561 0.0263,6.75711 -3.05092,12.15277 -8.78243,15.39915 l -4.4,2.4922 -18.19999,0.26548 -18.2,0.26547 z m 34.96115,22.03682 c 6.96734,-4.24823 6.51928,-14.42906 -0.78762,-17.89642 -2.20101,-1.04444 -5.18928,-1.33596 -13.69443,-1.33596 h -10.8791 v 10.4 10.4 l 11.4,-0.003 c 9.89529,-0.002 11.73804,-0.20911 13.96115,-1.56463 z m -3.98762,-28.56835 c 6.90981,-3.27892 7.84176,-12.48336 1.6464,-16.26067 -2.25598,-1.37548 -4.03692,-1.5978 -12.81993,-1.60037 l -10.2,-0.003 v 9.6 9.6 h 9.2791 c 7.01056,0 9.96737,-0.32662 12.09443,-1.33597 z M 87.81242,102.08727 c 7.27856,-3.749172 10.61428,-11.672312 8.85724,-21.038113 -0.61409,-3.27339 -6.22244,-9.92393 -8.945,-10.60725 -1.06148,-0.26642 -1.92996,-0.63636 -1.92996,-0.82211 0,-0.18574 1.2784,-1.46015 2.84087,-2.832019 3.90592,-3.42945 5.15913,-6.21053 5.15913,-11.44895 0,-6.92891 -3.07447,-11.83343 -9.6,-15.31428 -2.4363,-1.29958 -5.06008,-1.52682 -20.2,-1.74952 l -17.4,-0.25593 v 33.309129 33.309153 l 18.62505,-0.2532 c 18.16207,-0.2469 18.72367,-0.304 22.59267,-2.29691 z M 56.9947,84.530967 v -10.4 l 10.6,0.0176 c 8.58176,0.0142 11.22084,0.29954 13.86069,1.49852 5.66081,2.57103 7.48605,9.58318 3.91366,15.035351 -2.23534,3.41154 -5.69264,4.24856 -17.54865,4.24856 H 56.9947 Z m 0,-27.919659 v -9.68034 l 9.8,10e-4 c 7.73482,9.6e-4 10.38587,0.29601 12.58016,1.4 5.80538,2.92082 6.14022,11.60674 0.59977,15.55858 -2.30382,1.64324 -3.67154,1.87018 -12.77993,2.12052 l -10.2,0.2803 z"
       style="opacity:1;fill:#000000;fill-opacity:1;stroke:#000000;stroke-width:0.80000001" />
    <path
       style="opacity:1;fill:#ffffff;fill-opacity:1;stroke-width:0.72920358;paint-order:markers fill stroke"
       d="M 48.24426,70.498187 V 37.953811 l 12.21416,0.03932 c 17.72276,0.05705 22.55923,0.690191 26.62134,3.485 4.42557,3.04487 6.37512,7.11678 6.37512,13.315339 0,5.102489 -0.56167,6.344802 -5.031,11.127753 -2.48676,2.661266 -2.55155,2.854111 -1.22499,3.646018 3.04916,1.820219 7.16282,5.982233 8.49641,8.596276 1.53656,3.011922 1.83378,8.257375 0.69322,12.234296 -1.16847,4.074191 -4.21578,7.752171 -8.23562,9.940037 l -3.78301,2.05898 -18.06282,0.32286 -18.06281,0.32287 z M 83.09598,93.114864 C 88.51857,90.246191 90.25196,81.890117 86.37919,77.287598 83.26762,73.589704 80.5658,72.866981 68.16063,72.414213 L 56.9947,72.006675 v 11.498122 11.498127 l 11.84956,-0.30863 c 9.42971,-0.2456 12.34011,-0.56814 14.25172,-1.57943 z M 76.49743,65.222235 C 84.57229,64.240898 88.2998,54.067702 82.58915,48.596558 79.80139,45.925709 76.59386,45.284015 65.92744,45.263243 l -8.93274,-0.0174 v 10.522763 10.522762 l 8.20354,-0.346461 c 4.51195,-0.190554 9.59658,-0.515759 11.29919,-0.722676 z"
       id="path821"
       inkscape:connector-curvature="0" />
    <path
       style="opacity:1;fill:#ffffff;fill-opacity:1;stroke-width:0.72920358;paint-order:markers fill stroke"
       d="m 105.28953,121.99224 c 45.70749,-45.420271 86.78711,-86.172959 91.28803,-90.561535 l 8.18351,-7.979227 v 90.561532 90.56153 H 113.47304 22.185 Z m 63.2872,57.10983 c 7.34111,-4.20237 10.20402,-8.9567 10.12926,-16.82134 -0.0698,-7.34376 -3.57956,-13.63468 -8.83107,-15.8289 l -2.50469,-1.04653 2.63971,-1.87818 c 7.15467,-5.09062 7.55389,-18.0365 0.75282,-24.4126 -4.64623,-4.35591 -7.36423,-4.93142 -25.7345,-5.44904 l -16.83356,-0.47431 v 34.02442 34.02444 h 18.32362 18.32363 z"
       id="path823"
       inkscape:connector-curvature="0" />
  </g>
</svg>
