<?xml version="1.0" encoding="UTF-8" standalone="no"?>
<svg
   xmlns:dc="http://purl.org/dc/elements/1.1/"
   xmlns:cc="http://creativecommons.org/ns#"
   xmlns:rdf="http://www.w3.org/1999/02/22-rdf-syntax-ns#"
   xmlns:svg="http://www.w3.org/2000/svg"
   xmlns="http://www.w3.org/2000/svg"
   xmlns:sodipodi="http://sodipodi.sourceforge.net/DTD/sodipodi-0.dtd"
   xmlns:inkscape="http://www.inkscape.org/namespaces/inkscape"
   width="109.06075"
   height="141.77003"
   inkscape:version="0.92.3 (2405546, 2018-03-11)"
   sodipodi:docname="feedback-fast-logo - Copy.svg"
   version="1.1"
   viewBox="0 0 28.854857 37.511008"
   id="svg24">
  <metadata
     id="metadata28">
    <rdf:RDF>
      <cc:Work
         rdf:about="">
        <dc:format>image/svg+xml</dc:format>
        <dc:type
           rdf:resource="http://purl.org/dc/dcmitype/StillImage" />
        <dc:title></dc:title>
      </cc:Work>
    </rdf:RDF>
  </metadata>
  <defs
     id="defs26" />
  <sodipodi:namedview
     bordercolor="#666666"
     borderopacity="1"
     fit-margin-bottom="0"
     fit-margin-left="-0.1"
     fit-margin-right="0"
     fit-margin-top="0"
     gridtolerance="10"
     guidetolerance="10"
     inkscape:current-layer="svg24"
     inkscape:cx="-76.612575"
     inkscape:cy="70.973868"
     inkscape:pageopacity="0"
     inkscape:pageshadow="2"
     inkscape:window-height="1001"
     inkscape:window-maximized="1"
     inkscape:window-width="1920"
     inkscape:window-x="-9"
     inkscape:window-y="-9"
     inkscape:zoom="0.59795833"
     objecttolerance="10"
     pagecolor="#ffffff"
     showgrid="false"
     units="px"
     id="namedview2" />
  <g
     transform="translate(-26.645292,-12.18799)"
     style="fill:#2257bf;stroke-opacity:0"
     id="g22">
    <path
       d="m 26.614,15.742 6.2675,33.957 -2.058,-22.731 11.132,-0.65481 v -4.303 l 4.2095,-9.8222 -4.0224,6.5481 z"
       inkscape:connector-curvature="0"
       id="path10" />
    <path
       d="m 37.771,34.487 -4.5837,15.061 2.8999,-13.564 -0.56127,-8.3254 7.39,-0.46772 3.274,-14.967 -1.7773,20.393 z"
       inkscape:connector-curvature="0"
       id="path12" />
    <path
       d="m 39.267,35.423 6.1739,-1.5903 v 4.0224 l -4.116,1.3096 -8.1384,10.383 6.2675,-9.6351 z"
       inkscape:connector-curvature="0"
       id="path14" />
    <path
       d="m 46.729,30.945 6.2675,-0.70158 -0.46772,4.9578 -5.7062,1.8241 z"
       inkscape:connector-curvature="0"
       id="path16" />
    <path
       d="m 50.837,24.788 3.1337,0.14032 -0.70158,4.1627 -4.1627,0.37418 0.37418,-4.5369 -3.2741,-12.161 z"
       inkscape:connector-curvature="0"
       id="path18" />
    <path
       d="m 51.989,19.193 3.5079,0.93544 -0.46772,3.7418 -3.3208,-0.42095 0.14032,-2.5725 -5.6594,-8.6528 z"
       inkscape:connector-curvature="0"
       id="path20" />
  </g>
</svg>
