<?xml version="1.0" encoding="UTF-8" standalone="no"?>
<svg
   xmlns:dc="http://purl.org/dc/elements/1.1/"
   xmlns:cc="http://creativecommons.org/ns#"
   xmlns:rdf="http://www.w3.org/1999/02/22-rdf-syntax-ns#"
   xmlns:svg="http://www.w3.org/2000/svg"
   xmlns="http://www.w3.org/2000/svg"
   xmlns:sodipodi="http://sodipodi.sourceforge.net/DTD/sodipodi-0.dtd"
   xmlns:inkscape="http://www.inkscape.org/namespaces/inkscape"
   role="img"
   viewBox="0 0 24 24"
   data-reactid="13"
   version="1.1"
   id="svg4"
   sodipodi:docname="github-logo.svg"
   inkscape:version="0.92.3 (2405546, 2018-03-11)">
  <metadata
     id="metadata10">
    <rdf:RDF>
      <cc:Work
         rdf:about="">
        <dc:format>image/svg+xml</dc:format>
        <dc:type
           rdf:resource="http://purl.org/dc/dcmitype/StillImage" />
      </cc:Work>
    </rdf:RDF>
  </metadata>
  <defs
     id="defs8" />
  <sodipodi:namedview
     pagecolor="#ffffff"
     bordercolor="#666666"
     borderopacity="1"
     objecttolerance="10"
     gridtolerance="10"
     guidetolerance="10"
     inkscape:pageopacity="0"
     inkscape:pageshadow="2"
     inkscape:window-width="1920"
     inkscape:window-height="1001"
     id="namedview6"
     showgrid="false"
     inkscape:zoom="9.8333333"
     inkscape:cx="12"
     inkscape:cy="12"
     inkscape:window-x="-9"
     inkscape:window-y="-9"
     inkscape:window-maximized="1"
     inkscape:current-layer="svg4" />
  <path
     style="opacity:1;fill:#ffffff;fill-opacity:1;stroke-width:0.11636063;paint-order:markers fill stroke"
     d="m 8.983555,21.790727 c 0.07128,-0.1151 0.129555,-0.76497 0.129555,-1.444163 v -1.2349 l -0.719614,0.09987 C 6.990843,19.40618 5.574211,19.052543 4.803877,18.31544 4.566464,18.088279 4.1816756,17.546389 3.9487908,17.111265 3.5298259,16.328461 3.0115709,15.771503 2.3008775,15.340303 1.8321302,15.055898 1.9253613,14.751386 2.4811858,14.751386 c 0.7351538,0 1.8871252,0.705393 2.3207942,1.421107 0.09502,0.15682 0.432527,0.482789 0.750009,0.724373 0.78469,0.597089 1.609116,0.751907 2.708036,0.508534 0.810235,-0.179438 0.971518,-0.286988 0.978592,-0.65253 0.0022,-0.119007 0.172251,-0.479968 0.37767,-0.802135 C 9.821707,15.62857 9.975559,15.358884 9.958182,15.351422 9.940772,15.344322 9.41973,15.251472 8.800235,15.145877 7.32481,14.894373 6.040106,14.356534 5.218726,13.646484 3.0623366,11.782362 2.7108658,7.6759377 4.546309,5.790284 4.841286,5.4872376 4.859806,5.416294 4.740715,5.0455686 4.561144,4.486569 4.578004,3.2368093 4.773979,2.5802357 4.92203,2.0842103 4.969026,2.0364528 5.339976,2.0050566 5.905889,1.95716 6.878507,2.2511353 8.031082,2.8184484 L 9.014029,3.30227 10.096064,3.1158253 c 1.44549,-0.2490719 3.741365,-0.2465272 5.22919,0.00581 L 16.46879,3.3155687 16.848424,3.081885 c 0.837288,-0.5153949 2.318124,-1.0359198 2.956666,-1.0392895 0.618635,-0.0033 0.623678,-4.707e-4 0.775241,0.4294657 0.167205,0.4743125 0.202217,2.2202728 0.05318,2.6506069 -0.06889,0.1989227 -0.02069,0.356327 0.18214,0.595034 0.835759,0.9834102 1.185298,1.9891932 1.184347,3.4079229 -0.0022,3.395924 -1.815444,5.402352 -5.440395,6.020266 -0.619493,0.105598 -1.146582,0.203287 -1.171294,0.217088 -0.02467,0.01381 0.07503,0.170735 0.221646,0.348738 0.561715,0.681948 0.636774,1.096699 0.636774,3.51902 0,1.896051 0.03343,2.329592 0.194821,2.528816 L 16.636373,22 h -3.89117 C 8.936898,22 8.856788,21.9958 8.983582,21.79074 Z"
     id="path836"
     inkscape:connector-curvature="0" />
</svg>
