<?xml version="1.0" encoding="UTF-8" standalone="no"?>
<!-- Created with Inkscape (http://www.inkscape.org/) -->

<svg
   xmlns:dc="http://purl.org/dc/elements/1.1/"
   xmlns:cc="http://creativecommons.org/ns#"
   xmlns:rdf="http://www.w3.org/1999/02/22-rdf-syntax-ns#"
   xmlns:svg="http://www.w3.org/2000/svg"
   xmlns="http://www.w3.org/2000/svg"
   xmlns:sodipodi="http://sodipodi.sourceforge.net/DTD/sodipodi-0.dtd"
   xmlns:inkscape="http://www.inkscape.org/namespaces/inkscape"
   version="1.1"
   id="svg2"
   width="223.04454"
   height="223.84457"
   viewBox="0 0 223.04454 223.84458"
   sodipodi:docname="logo-sm.svg"
   inkscape:version="0.92.3 (2405546, 2018-03-11)">
  <metadata
     id="metadata8">
    <rdf:RDF>
      <cc:Work
         rdf:about="">
        <dc:format>image/svg+xml</dc:format>
        <dc:type
           rdf:resource="http://purl.org/dc/dcmitype/StillImage" />
        <dc:title></dc:title>
      </cc:Work>
    </rdf:RDF>
  </metadata>
  <defs
     id="defs6" />
  <sodipodi:namedview
     pagecolor="#ffffff"
     bordercolor="#666666"
     borderopacity="1"
     objecttolerance="10"
     gridtolerance="10"
     guidetolerance="10"
     inkscape:pageopacity="0"
     inkscape:pageshadow="2"
     inkscape:window-width="1920"
     inkscape:window-height="1001"
     id="namedview4"
     showgrid="false"
     fit-margin-top="0"
     fit-margin-left="0"
     fit-margin-right="0"
     fit-margin-bottom="0"
     inkscape:zoom="0.96969739"
     inkscape:cx="-129.27831"
     inkscape:cy="82.624027"
     inkscape:window-x="-9"
     inkscape:window-y="-9"
     inkscape:window-maximized="1"
     inkscape:current-layer="g5268" />
  <g
     id="g5268"
     style="opacity:1"
     transform="translate(-0.67243359,0.59130211)">
    <path
       style="opacity:1;fill:#ffffff;fill-opacity:1;stroke:#ffffff;stroke-width:2.24453282;stroke-miterlimit:4;stroke-dasharray:none;paint-order:markers fill stroke"
       d="m 1.7947,0.5309643 h 220.8 V 222.131 h -220.8 z"
       id="rect859"
       inkscape:connector-curvature="0" />
    <path
       inkscape:connector-curvature="0"
       id="path817"
       d="M 1.7947,111.33099 V 0.5309643 h 110.4 110.39999 v 110.8000257 110.8 H 112.1947 1.7947 Z m 216.79999,0.4 V 4.5309643 H 112.1947 5.7947 v 107.2000257 107.2 h 106.4 106.39999 z M 13.36497,207.53418 c -0.21008,-0.55176 -0.28934,-44.38319 -0.17612,-97.4032 L 13.3947,13.730964 h 97.6 97.59999 v 97.200016 97.20001 l -97.42388,0.20319 c -77.51748,0.16167 -97.50192,-0.002 -97.80584,-0.8 z m 191.62972,-95.0808 V 20.375744 L 112.5947,112.18461 c -50.82,50.49487 -92.4,91.9298 -92.4,92.07761 0,0.14783 41.58,0.26877 92.4,0.26877 h 92.39999 z m -76.79999,34.07317 v -33.33538 l 16.6,0.29365 c 13.71005,0.24253 17.15709,0.54063 19.79999,1.71234 7.00298,3.10473 10.4827,9.10219 9.83221,16.94631 -0.40884,4.93006 -2.12353,7.86524 -6.06825,10.38752 -3.03613,1.94131 -3.14455,2.48082 -0.62562,3.11304 5.57853,1.40012 10.01518,8.37732 10.04409,15.79561 0.0263,6.75711 -3.05092,12.15277 -8.78243,15.39915 l -4.4,2.4922 -18.19999,0.26548 -18.2,0.26547 z m 34.96115,22.03682 c 6.96734,-4.24823 6.51928,-14.42906 -0.78762,-17.89642 -2.20101,-1.04444 -5.18928,-1.33596 -13.69443,-1.33596 h -10.8791 v 10.4 10.4 l 11.4,-0.003 c 9.89529,-0.002 11.73804,-0.20911 13.96115,-1.56463 z m -3.98762,-28.56835 c 6.90981,-3.27892 7.84176,-12.48336 1.6464,-16.26067 -2.25598,-1.37548 -4.03692,-1.5978 -12.81993,-1.60037 l -10.2,-0.003 v 9.6 9.6 h 9.2791 c 7.01056,0 9.96737,-0.32662 12.09443,-1.33597 z M 87.81242,102.08727 c 7.27856,-3.749172 10.61428,-11.672312 8.85724,-21.038113 -0.61409,-3.27339 -6.22244,-9.92393 -8.945,-10.60725 -1.06148,-0.26642 -1.92996,-0.63636 -1.92996,-0.82211 0,-0.18574 1.2784,-1.46015 2.84087,-2.832019 3.90592,-3.42945 5.15913,-6.21053 5.15913,-11.44895 0,-6.92891 -3.07447,-11.83343 -9.6,-15.31428 -2.4363,-1.29958 -5.06008,-1.52682 -20.2,-1.74952 l -17.4,-0.25593 v 33.309129 33.309153 l 18.62505,-0.2532 c 18.16207,-0.2469 18.72367,-0.304 22.59267,-2.29691 z M 56.9947,84.530967 v -10.4 l 10.6,0.0176 c 8.58176,0.0142 11.22084,0.29954 13.86069,1.49852 5.66081,2.57103 7.48605,9.58318 3.91366,15.035351 -2.23534,3.41154 -5.69264,4.24856 -17.54865,4.24856 H 56.9947 Z m 0,-27.919659 v -9.68034 l 9.8,10e-4 c 7.73482,9.6e-4 10.38587,0.29601 12.58016,1.4 5.80538,2.92082 6.14022,11.60674 0.59977,15.55858 -2.30382,1.64324 -3.67154,1.87018 -12.77993,2.12052 l -10.2,0.2803 z"
       style="opacity:1;fill:#000000;fill-opacity:1;stroke:#000000;stroke-width:0.80000001" />
    <path
       style="opacity:1;fill:#ffffff;fill-opacity:1;stroke-width:0.72920358;paint-order:markers fill stroke"
       d="M 48.24426,70.498187 V 37.953811 l 12.21416,0.03932 c 17.72276,0.05705 22.55923,0.690191 26.62134,3.485 4.42557,3.04487 6.37512,7.11678 6.37512,13.315339 0,5.102489 -0.56167,6.344802 -5.031,11.127753 -2.48676,2.661266 -2.55155,2.854111 -1.22499,3.646018 3.04916,1.820219 7.16282,5.982233 8.49641,8.596276 1.53656,3.011922 1.83378,8.257375 0.69322,12.234296 -1.16847,4.074191 -4.21578,7.752171 -8.23562,9.940037 l -3.78301,2.05898 -18.06282,0.32286 -18.06281,0.32287 z M 83.09598,93.114864 C 88.51857,90.246191 90.25196,81.890117 86.37919,77.287598 83.26762,73.589704 80.5658,72.866981 68.16063,72.414213 L 56.9947,72.006675 v 11.498122 11.498127 l 11.84956,-0.30863 c 9.42971,-0.2456 12.34011,-0.56814 14.25172,-1.57943 z M 76.49743,65.222235 C 84.57229,64.240898 88.2998,54.067702 82.58915,48.596558 79.80139,45.925709 76.59386,45.284015 65.92744,45.263243 l -8.93274,-0.0174 v 10.522763 10.522762 l 8.20354,-0.346461 c 4.51195,-0.190554 9.59658,-0.515759 11.29919,-0.722676 z"
       id="path821"
       inkscape:connector-curvature="0" />
    <path
       style="opacity:1;fill:#ffffff;fill-opacity:1;stroke-width:0.72920358;paint-order:markers fill stroke"
       d="m 105.28953,121.99224 c 45.70749,-45.420271 86.78711,-86.172959 91.28803,-90.561535 l 8.18351,-7.979227 v 90.561532 90.56153 H 113.47304 22.185 Z m 63.2872,57.10983 c 7.34111,-4.20237 10.20402,-8.9567 10.12926,-16.82134 -0.0698,-7.34376 -3.57956,-13.63468 -8.83107,-15.8289 l -2.50469,-1.04653 2.63971,-1.87818 c 7.15467,-5.09062 7.55389,-18.0365 0.75282,-24.4126 -4.64623,-4.35591 -7.36423,-4.93142 -25.7345,-5.44904 l -16.83356,-0.47431 v 34.02442 34.02444 h 18.32362 18.32363 z"
       id="path823"
       inkscape:connector-curvature="0" />
  </g>
</svg>
